<svg version="1.2" xmlns="http://www.w3.org/2000/svg" viewBox="0 0 43 43" width="43" height="43"><defs><clipPath clipPathUnits="userSpaceOnUse" id="cp1"><path d="m-1268-2069h1440v2347h-1440z"/></clipPath></defs><style>.a{fill:#73c22e}</style><g clip-path="url(#cp1)"><path class="a" d="m2 22.1c0 10 7.2 18.2 16.7 19.9v-14.4h-5v-5.6h5v-4.4c0-5 3.2-7.8 7.7-7.8 1.5 0 3 0.2 4.5 0.4v5.1h-2.6c-2.4 0-3 1.3-3 2.8v3.9h5.4l-0.9 5.6h-4.5v14.4c9.5-1.7 16.7-9.9 16.7-19.9 0-11.1-9-20.1-20-20.1-11 0-20 9-20 20.1z"/></g></svg>